<svg xmlns="http://www.w3.org/2000/svg" xmlns:xlink="http://www.w3.org/1999/xlink" width="133.42" height="19.84" viewBox="0 0 133.42 19.84"><defs><path id="a" d="M1475.1 3793.3v-1.87h1.14v-1.12c0-1.52.46-2.6 2.11-2.6h1.98v1.85h-1.4c-.69 0-.85.46-.85.94v.93h2.15l-.3 1.86h-1.85v5.6h-1.84v-5.6zm12.32 0a9.71 9.71 0 1 0-19.42 0 9.71 9.71 0 0 0 19.42 0z"/><path id="b" d="M1516.6 3796.23c-.71 0-1.39-.4-1.62-.84l-.47 1.86c-.14.51-.4 1.02-.65 1.42-.35.46-.75.12-.8-.3-.02-.46 0-1.01.11-1.52l.86-3.7s-.21-.43-.21-1.07c0-1 .57-1.76 1.28-1.76.6 0 .9.47.9 1.02 0 .62-.4 1.55-.6 2.41-.16.72.36 1.3 1.06 1.3 1.26 0 2.1-1.64 2.1-3.6 0-1.49-.97-2.6-2.76-2.6a3.18 3.18 0 0 0-3.27 3.25c0 .59.17 1 .43 1.33.13.15.14.2.1.38l-.14.54c-.04.18-.18.24-.33.17-.93-.38-1.36-1.42-1.36-2.6 0-1.92 1.6-4.23 4.75-4.23 2.54 0 4.21 1.87 4.21 3.89 0 2.66-1.45 4.65-3.59 4.65zm-.89-12.65a9.71 9.71 0 1 0 0 19.42 9.71 9.71 0 0 0 0-19.42z"/><path id="c" d="M1598.3 3800.29h-2.73V3796c0-1.01-.02-2.32-1.42-2.32-1.42 0-1.64 1.1-1.64 2.25v4.35h-2.73v-8.79h2.62v1.2h.04a2.87 2.87 0 0 1 2.58-1.42c2.77 0 3.28 1.82 3.28 4.19zm-11.6-9.99a1.58 1.58 0 1 1 0-3.16 1.58 1.58 0 0 1 0 3.16zm-1.36 9.99v-8.79h2.73v8.79zm6.37-16.29a9.71 9.71 0 1 0 0 19.42 9.71 9.71 0 0 0 0-19.42z"/><path id="d" d="M1559.58 3790.7l.01.35a8.36 8.36 0 0 1-8.44 8.44 8.4 8.4 0 0 1-4.55-1.34.07.07 0 0 1-.02-.08.07.07 0 0 1 .07-.05 5.87 5.87 0 0 0 4.15-1.08 3.01 3.01 0 0 1-2.62-2.09c0-.02 0-.05.02-.07a.07.07 0 0 1 .06-.02c.34.07.68.07 1 .02a3.02 3.02 0 0 1-2.11-2.88v-.04a.07.07 0 0 1 .1-.06c.33.18.69.3 1.06.34a3 3 0 0 1-.73-3.87.07.07 0 0 1 .06-.04c.02 0 .04 0 .06.03a8.3 8.3 0 0 0 5.91 3.04 3.02 3.02 0 0 1 5.13-2.68 5.8 5.8 0 0 0 1.8-.7.07.07 0 0 1 .09 0c.02.02.03.05.02.08a3 3 0 0 1-1.06 1.49 5.8 5.8 0 0 0 1.36-.41.07.07 0 0 1 .09.1 6 6 0 0 1-1.46 1.52zm-5.87-7.12a9.71 9.71 0 1 0 0 19.42 9.71 9.71 0 0 0 0-19.42z"/></defs><use fill="#fff" xlink:href="#a" transform="translate(-1468 -3783.58)"/><use fill="#fff" xlink:href="#b" transform="translate(-1468 -3783.58)"/><use fill="#fff" xlink:href="#c" transform="translate(-1468 -3783.58)"/><use fill="#fff" xlink:href="#d" transform="translate(-1468 -3783.58)"/></svg>