<svg xmlns="http://www.w3.org/2000/svg" xmlns:xlink="http://www.w3.org/1999/xlink" width="400" height="400" viewBox="0 0 400 400"><defs><path id="a" d="M-200 900c0-110.46 89.54-200 200-200s200 89.54 200 200-89.54 200-200 200-200-89.54-200-200z"/><path id="b" d="M-150 900c0-82.84 67.16-150 150-150s150 67.16 150 150-67.16 150-150 150-150-67.16-150-150z"/><path id="c" d="M-100 900c0-55.23 44.77-100 100-100s100 44.77 100 100-44.77 100-100 100-100-44.77-100-100z"/></defs><g clip-path="url(#clip-9C3A5569-3E6E-466F-BF53-BE2D2A74887B)" transform="translate(200 -700)"><use fill="#fff" xlink:href="#a" opacity=".1"/><use fill="#fff" xlink:href="#b" opacity=".1"/><use fill="#fff" xlink:href="#c" opacity=".1"/></g></svg>